<svg xmlns="http://www.w3.org/2000/svg" version="1.1" xmlns:xlink="http://www.w3.org/1999/xlink" xmlns:svgjs="http://svgjs.dev/svgjs" width="1500" height="1500" viewBox="0 0 1500 1500"><g transform="matrix(1,0,0,1,-0.21332335329316265,-0.21332335329350371)"><svg viewBox="0 0 334 334" data-background-color="#ffffff" preserveAspectRatio="xMidYMid meet" height="1500" width="1500" xmlns="http://www.w3.org/2000/svg" xmlns:xlink="http://www.w3.org/1999/xlink"><g id="tight-bounds" transform="matrix(1,0,0,1,0.04749999999998522,0.04750000000001364)"><svg viewBox="0 0 333.90454557049503 333.90454557049503" height="333.90454557049503" width="333.90454557049503"><g><svg></svg></g><g><svg viewBox="0 0 333.90454557049503 333.90454557049503" height="333.90454557049503" width="333.90454557049503"><g><path d="M0 166.952c0-92.205 74.747-166.952 166.952-166.952 92.205 0 166.952 74.747 166.953 166.952 0 92.205-74.747 166.952-166.953 166.953-92.205 0-166.952-74.747-166.952-166.953zM166.952 316.63c82.665 0 149.677-67.013 149.678-149.678 0-82.665-67.013-149.677-149.678-149.677-82.665 0-149.677 67.013-149.677 149.677 0 82.665 67.013 149.677 149.677 149.678z" data-fill-palette-color="tertiary" fill="#35185a" stroke="transparent"></path><ellipse rx="160.27418187383762" ry="160.27418187383762" cx="166.95227278524752" cy="166.95227278524752" fill="#35185a" stroke="transparent" stroke-width="0" fill-opacity="1" data-fill-palette-color="tertiary"></ellipse></g><g transform="matrix(1,0,0,1,87.07601710373483,71.17305217166896)"><svg viewBox="0 0 159.75251136302538 191.55844122715712" height="191.55844122715712" width="159.75251136302538"><g><svg viewBox="0 0 159.75251136302538 191.55844122715712" height="191.55844122715712" width="159.75251136302538"><g><svg viewBox="0 0 159.75251136302538 191.55844122715712" height="191.55844122715712" width="159.75251136302538"><g><svg viewBox="0 0 159.75251136302538 191.55844122715712" height="191.55844122715712" width="159.75251136302538"><g id="textblocktransform"><svg viewBox="0 0 159.75251136302538 191.55844122715712" height="191.55844122715712" width="159.75251136302538" id="textblock"><g><svg viewBox="0 0 159.75251136302538 191.55844122715712" height="191.55844122715712" width="159.75251136302538"><g transform="matrix(1,0,0,1,0,0)"><svg width="159.75251136302538" viewBox="4.75 -38.25 33.15 39.75" height="191.55844122715712" data-palette-color="#ffffff"><path d="M37.9 1.5L37.7 1.5 9.8-23.7 11.95-22.5 12.1 0 4.75 0 4.75-38.25 5.05-38.25 32.35-13.15 30.75-13.85 30.6-36.8 37.9-36.8 37.9 1.5Z" opacity="1" transform="matrix(1,0,0,1,0,0)" fill="#ffffff" class="wordmark-text-0" data-fill-palette-color="quaternary" id="text-0"></path></svg></g></svg></g></svg></g></svg></g></svg></g></svg></g></svg></g></svg></g><defs></defs></svg><rect width="333.90454557049503" height="333.90454557049503" fill="none" stroke="none" visibility="hidden"></rect></g></svg></g></svg>