<svg xmlns="http://www.w3.org/2000/svg" version="1.1" xmlns:xlink="http://www.w3.org/1999/xlink" xmlns:svgjs="http://svgjs.dev/svgjs" width="1000" height="1199" viewBox="0 0 1000 1199"><g transform="matrix(1,0,0,1,0.37735849056593906,0.4854251012145596)"><svg viewBox="0 0 206 247" data-background-color="#77d4fc" preserveAspectRatio="xMidYMid meet" height="1199" width="1000" xmlns="http://www.w3.org/2000/svg" xmlns:xlink="http://www.w3.org/1999/xlink"><g id="tight-bounds" transform="matrix(1,0,0,1,-0.07773584905658026,-0.09999999999999432)"><svg viewBox="0 0 206.1554716981132 247.2" height="247.2" width="206.1554716981132"><g><svg viewBox="0 0 206.1554716981132 247.2" height="247.2" width="206.1554716981132"><g><svg viewBox="0 0 206.1554716981132 247.2" height="247.2" width="206.1554716981132"><g id="textblocktransform"><svg viewBox="0 0 206.1554716981132 247.2" height="247.2" width="206.1554716981132" id="textblock"><g><svg viewBox="0 0 206.1554716981132 247.2" height="247.2" width="206.1554716981132"><g transform="matrix(1,0,0,1,0,0)"><svg width="206.1554716981132" viewBox="4.75 -38.25 33.15 39.75" height="247.2" data-palette-color="#ccf381"><path d="M37.9 1.5L37.7 1.5 9.8-23.7 11.95-22.5 12.1 0 4.75 0 4.75-38.25 5.05-38.25 32.35-13.15 30.75-13.85 30.6-36.8 37.9-36.8 37.9 1.5Z" opacity="1" transform="matrix(1,0,0,1,0,0)" fill="#ccf381" class="wordmark-text-0" data-fill-palette-color="primary" id="text-0"></path></svg></g></svg></g></svg></g></svg></g></svg></g><defs></defs></svg><rect width="206.1554716981132" height="247.2" fill="none" stroke="none" visibility="hidden"></rect></g></svg></g></svg>