<svg xmlns:xlink="http://www.w3.org/1999/xlink" width="128" height="128" viewBox="0 0 128 128" fill="none" xmlns="http://www.w3.org/2000/svg" class="absolute inset-0 z-0" style="transform: rotate(90deg);"><path d="M73 6C73 3.23858 75.2386 1 78 1L122 1C124.761 1 127 3.23858 127 6V34C127 36.7614 124.761 39 122 39H78C75.2386 39 73 36.7614 73 34V6Z" stroke="#0F1B33" stroke-width="2px" fill="none"></path><path d="M73 78C73 75.2386 75.2386 73 78 73H122C124.761 73 127 75.2386 127 78V122C127 124.761 124.761 127 122 127H78C75.2386 127 73 124.761 73 122V78Z" stroke="#0F1B33" stroke-width="2px" fill="none"></path><path d="M1 6C1 3.23858 3.23858 1 6 1L50 1C52.7614 1 55 3.23858 55 6V50C55 52.7614 52.7614 55 50 55H6C3.23858 55 1 52.7614 1 50L1 6Z" stroke="#0F1B33" stroke-width="2px" fill="none"></path><path d="M1 94C1 91.2386 3.23858 89 6 89H50C52.7614 89 55 91.2386 55 94V122C55 124.761 52.7614 127 50 127H6C3.23858 127 1 124.761 1 122L1 94Z" stroke="#0F1B33" stroke-width="2px" fill="none"></path></svg>