<svg xmlns="http://www.w3.org/2000/svg" version="1.1" xmlns:xlink="http://www.w3.org/1999/xlink" xmlns:svgjs="http://svgjs.dev/svgjs" width="1000" height="623" viewBox="0 0 1000 623"><g transform="matrix(1,0,0,1,-0.6060606060606233,0.2522267206477409)"><svg viewBox="0 0 396 247" data-background-color="#00ffef" preserveAspectRatio="xMidYMid meet" height="623" width="1000" xmlns="http://www.w3.org/2000/svg" xmlns:xlink="http://www.w3.org/1999/xlink"><g id="tight-bounds" transform="matrix(1,0,0,1,0.2400000000000091,-0.09999999999999432)"><svg viewBox="0 0 395.52 247.2" height="247.2" width="395.52"><g><svg></svg></g><g><svg viewBox="0 0 395.52 247.2" height="247.2" width="395.52"><g transform="matrix(1,0,0,1,104.74331542567143,47.215199999999996)"><svg viewBox="0 0 186.03336914865713 152.7696" height="152.7696" width="186.03336914865713"><g><svg viewBox="0 0 186.03336914865713 152.7696" height="152.7696" width="186.03336914865713"><g><svg viewBox="0 0 257.0981161634442 211.12758720000002" height="152.7696" width="186.03336914865713"><g transform="matrix(1,0,0,1,106.1353712787606,29.178993600000013)"><svg viewBox="0 0 150.96274488468362 152.7696" height="152.7696" width="150.96274488468362"><g id="textblocktransform"><svg viewBox="0 0 150.96274488468362 152.7696" height="152.7696" width="150.96274488468362" id="textblock"><g><svg viewBox="0 0 150.96274488468362 152.7696" height="152.7696" width="150.96274488468362"><g transform="matrix(1,0,0,1,0,0)"><svg width="150.96274488468362" viewBox="1.2200000286102295 -31.93000030517578 40.78999710083008 41.279998779296875" height="152.7696" data-palette-color="#ccf381"><path d="M1.22-28.52L5.66-27.27 5.66-2.95 1.59-1.81 1.39 0 12.99 0 13.26-1.95 8.79-2.78 8.79-23.46 24.98 0.73 28.71-0.02 28.71-27.59 32.79-28.52 33.11-30.37 21.51-30.37 21.22-28.52 25.73-27.49 25.73-6.69 10.03-30.37 1.49-30.37 1.22-28.52ZM39.04-25.95Q39.84-25.95 40.52-26.37 41.21-26.78 41.61-27.49 42.01-28.2 42.01-29L42.01-29Q42.01-30.2 41.15-31.07 40.28-31.93 39.06-31.93L39.06-31.93Q37.81-31.93 36.92-31.09 36.03-30.25 36.03-29.03L36.03-29.03Q36.03-28.22 36.45-27.51 36.86-26.81 37.55-26.38 38.23-25.95 39.04-25.95L39.04-25.95ZM33.01 9.35L34.13 8.76Q37.38 6.93 39.35 3.99 41.33 1.05 41.33-3.69L41.33-3.69 41.33-21.04 40.72-21.66 33.91-21.14 33.54-19.19 37.2-17.85 37.2-4.2Q37.2-1.12 36.45 1.07 35.69 3.27 34.53 4.65 33.37 6.03 31.81 7.2L31.81 7.2 33.01 9.35Z" opacity="1" transform="matrix(1,0,0,1,0,0)" fill="#ccf381" class="wordmark-text-0" data-fill-palette-color="primary" id="text-0"></path></svg></g></svg></g></svg></g></svg></g><g><svg viewBox="0 0 70.07013518916061 211.12758720000002" height="211.12758720000002" width="70.07013518916061"><g><svg xmlns="http://www.w3.org/2000/svg" xmlns:xlink="http://www.w3.org/1999/xlink" version="1.1" x="0" y="0" viewBox="34.95000076293945 4.6529998779296875 30.10000228881836 90.69400024414062" enable-background="new 0 0 100 100" xml:space="preserve" height="211.12758720000002" width="70.07013518916061" class="icon-icon-0" data-fill-palette-color="accent" id="icon-0"><polygon points="54.733,4.653 65.05,16.947 65.05,95.347 45.532,88.405 58.164,52.519 34.95,28.984 " fill="#ccf381" data-fill-palette-color="accent"></polygon></svg></g></svg></g></svg></g></svg></g></svg></g><path d="M283.237 41.215L283.237 0 36.037 0 36.037 247.2 283.237 247.2 283.237 205.985 273.268 205.985 273.268 237.231 46.005 237.231 46.005 9.969 273.268 9.969 273.268 41.215Z" fill="#ccf381" stroke="transparent" data-fill-palette-color="primary"></path></svg></g><defs></defs></svg><rect width="395.52" height="247.2" fill="none" stroke="none" visibility="hidden"></rect></g></svg></g></svg>